G04*
G04 #@! TF.GenerationSoftware,Altium Limited,Altium Designer,18.0.12 (696)*
G04*
G04 Layer_Physical_Order=1*
G04 Layer_Color=255*
%FSLAX42Y42*%
%MOMM*%
G71*
G01*
G75*
%ADD10R,1.50X1.40*%
%ADD11O,2.20X0.60*%
%ADD12R,1.20X1.40*%
%ADD13R,1.40X1.20*%
%ADD14C,0.25*%
%ADD15R,1.50X1.50*%
%ADD16C,1.50*%
D10*
X686Y168D02*
D03*
Y368D02*
D03*
D11*
X1119Y927D02*
D03*
Y800D02*
D03*
Y673D02*
D03*
Y546D02*
D03*
Y419D02*
D03*
Y292D02*
D03*
Y165D02*
D03*
X1599Y927D02*
D03*
Y800D02*
D03*
Y673D02*
D03*
Y546D02*
D03*
Y419D02*
D03*
Y292D02*
D03*
Y165D02*
D03*
D12*
X1956Y876D02*
D03*
X2136D02*
D03*
D13*
X2235Y559D02*
D03*
Y379D02*
D03*
X1956Y546D02*
D03*
Y366D02*
D03*
D14*
X1116Y168D02*
X1119Y165D01*
X686Y168D02*
X1116D01*
X1295Y927D02*
Y1041D01*
Y711D02*
Y927D01*
X1119D02*
X1295D01*
Y1041D02*
X1397Y1143D01*
X317Y419D02*
X368Y368D01*
X686D01*
X889D01*
X965Y292D01*
X1119D01*
X2527Y597D02*
X2680Y445D01*
Y216D02*
Y445D01*
X2565Y102D02*
X2680Y216D01*
X1892Y102D02*
X2565D01*
X1829Y165D02*
X1892Y102D01*
X1829Y165D02*
Y940D01*
X1753Y1016D02*
X1829Y940D01*
X1486Y1016D02*
X1753D01*
X1397Y927D02*
X1486Y1016D01*
X1397Y267D02*
Y927D01*
X1295Y165D02*
X1397Y267D01*
X1119Y165D02*
X1295D01*
X683D02*
X686Y168D01*
X317Y165D02*
X683D01*
X1486Y927D02*
X1599D01*
X1448Y889D02*
X1486Y927D01*
X1448Y89D02*
Y889D01*
X1397Y38D02*
X1448Y89D01*
X241Y38D02*
X1397D01*
X227Y52D02*
X241Y38D01*
X227Y52D02*
X227D01*
X178Y101D02*
X227Y52D01*
X178Y101D02*
Y533D01*
X317Y673D01*
X1346Y978D02*
X1460Y1092D01*
X1346Y622D02*
Y978D01*
X1270Y546D02*
X1346Y622D01*
X1460Y1092D02*
X1892D01*
X1956Y876D02*
Y1028D01*
X1892Y1092D02*
X1956Y1028D01*
X2136Y876D02*
Y1039D01*
X2032Y1143D02*
X2136Y1039D01*
X1397Y1143D02*
X2032D01*
X1257Y673D02*
X1295Y711D01*
X2438Y851D02*
X2527D01*
X2375Y787D02*
X2438Y851D01*
X2375Y483D02*
Y787D01*
X2271Y379D02*
X2375Y483D01*
X2235Y379D02*
X2271D01*
X1956Y546D02*
X1956Y547D01*
Y876D01*
X2136Y658D02*
X2235Y559D01*
X2136Y658D02*
Y876D01*
X2527Y203D02*
Y343D01*
X2515Y190D02*
X2527Y203D01*
X1994Y190D02*
X2515D01*
X1956Y229D02*
X1994Y190D01*
X1956Y229D02*
Y366D01*
X1119Y546D02*
X1270D01*
X1119Y673D02*
X1257D01*
X940Y546D02*
X1119D01*
X902Y584D02*
X940Y546D01*
X902Y584D02*
Y762D01*
X940Y800D01*
X1119D01*
Y419D02*
Y546D01*
D15*
X2527Y343D02*
D03*
X317Y165D02*
D03*
D16*
X2527Y597D02*
D03*
Y851D02*
D03*
X317Y419D02*
D03*
Y673D02*
D03*
M02*
